<?xml version="1.0" encoding="UTF-8" standalone="no" ?>
<!DOCTYPE svg PUBLIC "-//W3C//DTD SVG 1.1//EN" "http://www.w3.org/Graphics/SVG/1.1/DTD/svg11.dtd">
<svg xmlns="http://www.w3.org/2000/svg" xmlns:xlink="http://www.w3.org/1999/xlink" version="1.1" width="500" height="500" viewBox="0 0 500 500" xml:space="preserve">
<desc>Created with Fabric.js 4.6.0</desc>
<defs>
</defs>
<g transform="matrix(2.47 0 0 2.53 250 250)" id="EaAZWT9UZwufS21pZaPdp"  >
<g style="" vector-effect="non-scaling-stroke"   >
		<g transform="matrix(1 0 -0.27 1 19.99 0)" id="7xu-ZFJRJ0bbLKNqJVOu4"  >
<path style="stroke: rgb(238,184,196); stroke-width: 0; stroke-dasharray: none; stroke-linecap: butt; stroke-dashoffset: 0; stroke-linejoin: miter; stroke-miterlimit: 4; fill: rgb(247,47,58); fill-opacity: 0.64; fill-rule: nonzero; opacity: 1;" vector-effect="non-scaling-stroke"  transform=" translate(0, 0)" d="M -55.18394 -35.79433 C -55.18394 -47.242110000000004 -46.95205 -55.18394000000001 -35.08616 -55.18394000000001 L 28.870910000000002 -55.18394000000001 L 28.870910000000002 -55.18394000000001 C 35.13483 -55.18394000000001 41.83711 -52.263360000000006 46.996900000000004 -47.28538 C 52.156690000000005 -42.3074 55.18394000000001 -35.841280000000005 55.18394000000001 -29.798080000000002 L 55.18394000000001 35.79433 L 55.18394000000001 35.79433 C 55.18394000000001 47.242110000000004 46.95205000000001 55.18394000000001 35.08616000000001 55.18394000000001 L -28.870909999999995 55.18394000000001 L -28.870909999999995 55.18394000000001 C -35.134829999999994 55.18394000000001 -41.837109999999996 52.263360000000006 -46.9969 47.28538 C -52.15669 42.3074 -55.18393999999999 35.841280000000005 -55.18393999999999 29.798080000000002 z" stroke-linecap="round" />
</g>
		<g transform="matrix(1 0 -0.27 1 0 0)" id="6EdD_v-7deA8pxbO4prZb"  >
<path style="stroke: rgb(238,184,196); stroke-width: 0; stroke-dasharray: none; stroke-linecap: butt; stroke-dashoffset: 0; stroke-linejoin: miter; stroke-miterlimit: 4; fill: rgb(108,59,244); fill-rule: nonzero; opacity: 1;" vector-effect="non-scaling-stroke"  transform=" translate(0, 0)" d="M -55.18394 -35.79433 C -55.18394 -47.242110000000004 -46.95205 -55.18394000000001 -35.08616 -55.18394000000001 L 28.870910000000002 -55.18394000000001 L 28.870910000000002 -55.18394000000001 C 35.13483 -55.18394000000001 41.83711 -52.263360000000006 46.996900000000004 -47.28538 C 52.156690000000005 -42.3074 55.18394000000001 -35.841280000000005 55.18394000000001 -29.798080000000002 L 55.18394000000001 35.79433 L 55.18394000000001 35.79433 C 55.18394000000001 47.242110000000004 46.95205000000001 55.18394000000001 35.08616000000001 55.18394000000001 L -28.870909999999995 55.18394000000001 L -28.870909999999995 55.18394000000001 C -35.134829999999994 55.18394000000001 -41.837109999999996 52.263360000000006 -46.9969 47.28538 C -52.15669 42.3074 -55.18393999999999 35.841280000000005 -55.18393999999999 29.798080000000002 z" stroke-linecap="round" />
</g>
		<g transform="matrix(1 0 -0.27 1 -19.99 0)" id="_uANUw9hO2d6ZYsbTAnnZ"  >
<path style="stroke: rgb(238,184,196); stroke-width: 0; stroke-dasharray: none; stroke-linecap: butt; stroke-dashoffset: 0; stroke-linejoin: miter; stroke-miterlimit: 4; fill: rgb(49,168,247); fill-opacity: 0.79; fill-rule: nonzero; opacity: 1;" vector-effect="non-scaling-stroke"  transform=" translate(0, 0)" d="M -55.18394 -35.79433 C -55.18394 -47.242110000000004 -46.95205 -55.18394000000001 -35.08616 -55.18394000000001 L 28.870910000000002 -55.18394000000001 L 28.870910000000002 -55.18394000000001 C 35.13483 -55.18394000000001 41.83711 -52.263360000000006 46.996900000000004 -47.28538 C 52.156690000000005 -42.3074 55.18394000000001 -35.841280000000005 55.18394000000001 -29.798080000000002 L 55.18394000000001 35.79433 L 55.18394000000001 35.79433 C 55.18394000000001 47.242110000000004 46.95205000000001 55.18394000000001 35.08616000000001 55.18394000000001 L -28.870909999999995 55.18394000000001 L -28.870909999999995 55.18394000000001 C -35.134829999999994 55.18394000000001 -41.837109999999996 52.263360000000006 -46.9969 47.28538 C -52.15669 42.3074 -55.18393999999999 35.841280000000005 -55.18393999999999 29.798080000000002 z" stroke-linecap="round" />
</g>
</g>
</g>
</svg>